<?xml version="1.0" encoding="UTF-8" standalone="no"?>
<!-- Created with Inkscape (http://www.inkscape.org/) -->

<svg
   xmlns:dc="http://purl.org/dc/elements/1.1/"
   xmlns:cc="http://creativecommons.org/ns#"
   xmlns:rdf="http://www.w3.org/1999/02/22-rdf-syntax-ns#"
   xmlns:svg="http://www.w3.org/2000/svg"
   xmlns="http://www.w3.org/2000/svg"
   version="1.1"
   width="688"
   height="688"
   id="svg2"
   xml:space="preserve"><metadata
     id="metadata8"><rdf:RDF><cc:Work
         rdf:about=""><dc:format>image/svg+xml</dc:format><dc:type
           rdf:resource="http://purl.org/dc/dcmitype/StillImage" /><dc:title></dc:title></cc:Work></rdf:RDF></metadata><defs
     id="defs6" /><g
     transform="matrix(1.25,0,0,-1.25,148.96193,1060.914)"
     id="g10"><g
       transform="matrix(1.1498407,0,0,1.1498407,-183.47438,82.994784)"
       id="g6961"
       style="fill:#FFFFFF;stroke:none"><path
         d="m 369,220.0625 c -165.3,0 -299.09375,133.94375 -299.09375,299.09375 l 0,0.15625 c 0,165.15 133.94375,299.09375 299.09375,299.09375 165.15,0 299.1,-133.94375 299.25,-299.09375 l 0,-0.15625 C 668.25,354.00625 534.3,220.0625 369,220.0625 z M 311.6875,276.75 c 21.75,0 41.25,13.34375 49.125,33.59375 1.425,2.85 2.34375,5.85625 2.34375,9.15625 0,4.05 -1.35625,8.2625 -3.90625,11.5625 -1.35,2.85 -2.9875,5.38125 -4.9375,7.78125 -3.45,4.2 -6.025,9.3 -7.375,14.625 -1.61055,6.65057 -2.53095,15.39773 -2.3125,23.1875 3.56514,47.05984 8.71435,94.04941 23.46875,139.1875 l 1.0625,3.46875 L 370.5,514.5 c 13.2106,-44.80299 20.99263,-91.16683 22.9375,-137.84375 0.37396,-7.78763 -0.7572,-16.52903 -2.375,-23.1875 -1.35,-5.325 -3.925,-10.425 -7.375,-14.625 -1.95,-2.4 -3.5875,-4.93125 -4.9375,-7.78125 -2.55,-3.3 -3.75,-7.5125 -3.75,-11.5625 0,-3.3 0.75,-6.30625 2.25,-9.15625 7.8,-20.25 27.2875,-33.59375 49.1875,-33.59375 2.55,0 5.1125,0.15625 7.8125,0.53125 109.5,29.475 185.5625,128.63125 185.5625,242.03125 0,21.75 -2.8625,43.4875 -8.5625,64.1875 -7.95,20.1 -27.4625,33.4375 -49.0625,33.4375 -2.85,0 -5.53125,-0.3 -8.15625,-0.75 -7.575,-0.15 -14.19375,-4.65 -17.34375,-11.625 -1.8,-2.625 -3.275,-5.30625 -4.25,-8.15625 -2.025,-5.1 -5.04375,-9.75625 -9.09375,-13.65625 -5.55,-5.4 -11.85,-10.0375 -18.75,-13.5625 -41.83491,-21.50244 -86.10915,-39.0522 -132.15625,-49.125 l -3.28125,-0.75 3.15625,3.4375 c 32.29513,33.76309 68.37575,63.98567 108,88.8125 5.60884,3.47352 13.51311,6.92864 21.21875,9.375 3.225,0.825 6.68125,1.40625 10.28125,1.40625 1.95,0 4.05,-0.30625 6,-0.53125 1.95,-0.225 3.7375,-0.375 5.6875,-0.375 1.2,0 2.25625,0.006 3.53125,0.15625 l 2.15625,0 c 6.6,0 12.9,3.45 16.5,9 7.5,9.45 11.71875,21.00625 11.71875,33.15625 0,11.85 -4.19375,23.5625 -11.46875,32.9375 -46.875,46.875 -110.48125,73.25 -176.78125,73.25 -66.45,0 -130.05,-26.375 -177,-73.25 C 184.80625,687.3125 180.75,675.6 180.75,663.75 c 0,-12.15 4.0625,-23.70625 11.5625,-33.15625 3.6,-5.55 9.875,-9 16.625,-9 l 2.125,0 c 1.2,-0.15 2.39375,-0.15625 3.59375,-0.15625 1.8,0 3.73125,0.15 5.53125,0.375 1.95,0.225 4.05625,0.53125 6.15625,0.53125 3.45,0 6.91875,-0.58125 10.21875,-1.40625 12.16839,-4.56581 23.51055,-11.92038 35.1214,-19.17197 35.22446,-21.99956 68.07109,-52.75282 94.90985,-79.92178 l 2.5625,-2.53125 c -50.19411,10.97996 -115.05078,32.7994 -154.5,63.4375 -3.9,3.9 -7.05625,8.55625 -9.15625,13.65625 -1.05,2.85 -2.55625,5.53125 -4.28125,8.15625 -2.925,6.975 -9.65625,11.475 -17.15625,11.625 -2.7,0.45 -5.425,0.75 -8.125,0.75 -21.75,0 -41.23125,-13.3375 -49.03125,-33.4375 -5.55,-20.7 -8.40625,-42.4375 -8.40625,-64.1875 0,-113.4 75.90625,-212.55625 185.40625,-242.03125 2.55,-0.375 5.08125,-0.53125 7.78125,-0.53125 z"
         transform="matrix(0.8,0,0,-0.8,0,842)"
         id="path1994"
         style="fill:#FFFFFF;stroke:none" /><g
         id="g6139"
         style="fill:#FFFFFF;stroke:none"><path
           d="m 278.28,483.2616 c -2.422,12.86558 -3.73558,25.91142 -4.92,38.94 l 0,0 -18.66,-25.14 c -0.3,-2.94 -0.42,-6.3 -0.42,-10.02 0,-10.44 1.2,-20.88 3.72,-30.9 8.04,8.22 14.76,17.34 20.28,27.12 z"
           id="path122"
           style="fill:#FFFFFF;stroke:none" /><path
           d="m 180.84,560.4816 c 10.44,7.68 21.72,14.04 33.72,18.96 -6.72,1.92 -13.08,4.56 -19.14,8.04 -6.78,-7.8 -11.82,-17.04 -14.58,-27 z"
           id="path124"
           style="fill:#FFFFFF;stroke:none" /><path
           d="m 239.04,575.9616 c -6.36,0 -12.6,0.72 -18.72,1.98 -14.64,-5.58 -28.32,-13.26 -40.62,-22.92 0,0 1.38,-0.06 4.02,-0.06 8.76,0 17.52,0.84 25.86,2.22 9.54,7.38 19.98,13.74 31.08,18.84 0.3,0.06 -0.18,-0.06 -1.62,-0.06 z"
           id="path136"
           style="fill:#FFFFFF;stroke:none" /><path
           d="m 178.2,541.2816 c 0,-4.8 0.48,-9.72 1.44,-14.4 7.2,9.6 15.36,18.24 24.54,25.92 -6.54,-0.96 -13.38,-1.44 -20.46,-1.44 -2.64,0 -4.2,0.12 -4.74,0.18 -0.54,-3.42 -0.78,-6.78 -0.78,-10.26 z"
           id="path144"
           style="fill:#FFFFFF;stroke:none" /><path
           d="m 181.86,519.0816 c 3.06,-9.36 8.1,-18 14.82,-25.26 3.36,11.94 8.28,23.46 14.88,34.26 -9.6,-3.84 -19.56,-6.84 -29.7,-9 z"
           id="path146"
           style="fill:#FFFFFF;stroke:none" /><path
           d="m 199.5,490.8216 c 12.54,4.14 24.3,10.14 34.92,17.76 4.74,13.86 10.38,27.18 16.98,39.78 -10.68,-7.08 -22.2,-13.08 -34.32,-18.06 -8.04,-12.06 -13.92,-25.38 -17.58,-39.48 z"
           id="path148"
           style="fill:#FFFFFF;stroke:none" /><path
           d="m 218.1,477.9816 6.78,-3.06 0,0 7.68,28.08 c -9.36,-6.12 -19.44,-11.16 -30.06,-14.82 4.62,-4.02 9.9,-7.5 15.6,-10.2 z"
           id="path160"
           style="fill:#FFFFFF;stroke:none" /><path
           d="m 251.04,492.5616 -19.68,-20.88 22.44,-12.84 -0.06,0 c -1.98,9.24 -2.94,18.72 -2.94,28.2 0,2.28 0,4.08 0.18,5.46 z"
           id="path178"
           style="fill:#FFFFFF;stroke:none" /><path
           d="m 261,454.2216 c 6.84,7.14 12.96,15.06 18.12,23.64 2.84196,-15.48125 6.53239,-30.78711 10.92,-45.9 l 0.18,-0.6 c -9.3,8.4 -19.02,16.08 -29.22,22.86 z"
           id="path222"
           style="fill:#FFFFFF;stroke:none" /><path
           d="m 268.8,596.1216 c 0.84,0 1.8,-0.12 2.76,-0.36 0.6,-0.12 1.08,-0.72 1.08,-1.44 0,-0.72 -0.72,-1.44 -1.44,-1.44 -0.24,0 -0.36,0.12 -0.48,0.12 -0.72,0.24 -1.32,0.24 -1.92,0.24 -3.48,0 -6.36,-2.52 -6.72,-5.94 0,0.06 0,-0.06 0,-0.3 0,-6.48 4.56,-12 10.98,-13.14 0.54,-0.06 1.14,-0.18 1.86,-0.18 6.96,0 12.72,5.76 12.72,12.72 0,4.32 -2.16,8.28 -5.82,10.68 -10.38,9 -23.58,13.92 -37.14,13.92 -3.48,0 -6.84,-0.24 -10.14,-0.84 -13.98,-2.76 -26.82,-9.84 -36.66,-20.04 12.6,-6.96 26.76,-10.68 41.16,-10.68 6.96,0 14.04,0.96 20.88,2.64 -0.48,1.68 -0.72,3.24 -0.72,4.92 0,0.36 0,0.36 0,0.42 0.48,4.98 4.56,8.7 9.6,8.7 z"
           id="path230"
           style="fill:#FFFFFF;stroke:none" /><path
           d="m 259.74,564.8016 c 1.38,3.36 3.78,6.36 6.78,8.64 -2.16,1.32 -3.84,3.24 -5.16,5.4 -3,-0.72 -6.12,-1.44 -9.42,-1.92 -28.62,-10.8 -53.34,-29.76 -71.16,-54.48 26.58,5.76 51.78,16.8 74.04,32.4 1.86,3.24 3.54,6.48 4.92,9.96 z"
           id="path242"
           style="fill:#FFFFFF;stroke:none" /><path
           d="m 272.88,527.8416 0,0.84 c -0.23393,5.21133 -0.71967,9.94636 -0.72,14.52 0,5.64 0.6,11.28 1.98,16.86 1.02,4.14 2.82,8.1 5.34,11.58 -1.44,-0.48 -3,-0.84 -4.56,-0.84 -0.84,0 -1.56,0.12 -2.34,0.24 -0.9,0.12 -1.74,0.36 -2.58,0.66 -3.12,-1.98 -5.64,-4.86 -7.02,-8.28 l -3.84,-7.98 c -14.34,-25.68 -24.78,-53.4 -31.2,-82.02 17.1,16.38 32.1,34.74 44.88,54.54 z"
           id="path254"
           style="fill:#FFFFFF;stroke:none" /><path
           d="m 318.36,543.2016 c 0,5.64 -0.72,11.28 -2.1,16.86 -1.02,4.14 -2.82,8.1 -5.34,11.58 1.44,-0.48 3,-0.84 4.68,-0.84 0.72,0 1.44,0.12 2.22,0.24 0.9,0.12 1.74,0.36 2.58,0.66 3.12,-1.98 5.64,-4.86 7.08,-8.28 l 0,-0.06 3.84,-7.92 c 14.28,-25.68 24.84,-53.4 31.08,-82.02 -17.04,16.38 -32.16,34.74 -44.88,54.54 0.1979,5.01049 0.82113,10.51196 0.84,15.24 z"
           id="path336"
           style="fill:#FFFFFF;stroke:none" /><path
           d="m 375.9,579.4416 c 6.66,1.92 13.02,4.56 19.02,8.04 6.72,-7.8 11.76,-17.04 14.58,-27 -10.38,7.68 -21.66,14.04 -33.6,18.96 z"
           id="path380"
           style="fill:#FFFFFF;stroke:none" /><path
           d="m 349.8,576.0216 c -0.36,0.06 0.12,-0.06 1.68,-0.06 6.24,0 12.48,0.72 18.6,1.98 14.64,-5.58 28.32,-13.26 40.68,-22.92 -0.12,0.06 -1.44,-0.06 -3.96,-0.06 -8.88,0 -17.64,0.84 -25.98,2.22 -9.54,7.38 -19.98,13.74 -31.02,18.84 z"
           id="path386"
           style="fill:#FFFFFF;stroke:none" /><path
           d="m 412.2,541.2816 c 0,-4.8 -0.6,-9.72 -1.5,-14.4 -7.14,9.6 -15.3,18.24 -24.48,25.92 6.54,-0.96 13.38,-1.44 20.58,-1.44 2.52,0 4.08,0.12 4.62,0.18 0.42,-3.42 0.78,-6.78 0.78,-10.26 z"
           id="path392"
           style="fill:#FFFFFF;stroke:none" /><path
           d="m 408.54,519.0816 c -3.18,-9.36 -8.22,-18 -14.88,-25.26 -3.18,11.94 -8.22,23.46 -14.82,34.26 9.6,-3.84 19.56,-6.84 29.7,-9 z"
           id="path394"
           style="fill:#FFFFFF;stroke:none" /><path
           d="m 387.84,488.1816 c -10.56,3.66 -20.64,8.7 -30,14.82 l 0,0 7.8,-28.08 6.72,3 -0.06,0.06 c 5.58,2.7 10.86,6.18 15.54,10.2 z"
           id="path408"
           style="fill:#FFFFFF;stroke:none" /><path
           d="m 390.9,490.8216 c -12.42,4.14 -24.18,10.14 -34.92,17.76 -4.74,13.86 -10.38,27.18 -16.98,39.78 10.68,-7.08 22.2,-13.08 34.32,-18.06 8.04,-12.06 13.92,-25.38 17.58,-39.48 z"
           id="path412"
           style="fill:#FFFFFF;stroke:none" /><path
           d="m 336.24,487.0416 c 0,3.72 -0.24,7.08 -0.48,10.02 l -18.6,25.14 0,0 c -1.32006,-12.99925 -2.33558,-26.12475 -4.98,-38.94 5.46,-9.78 12.18,-18.9 20.22,-27.12 2.52,10.02 3.84,20.46 3.84,30.9 z"
           id="path432"
           style="fill:#FFFFFF;stroke:none" /><path
           d="m 339.72,487.0416 c 0,2.28 -0.12,4.08 -0.24,5.46 l 19.56,-20.82 0,0 -22.38,-12.84 c 1.98,9.24 3.06,18.72 3.06,28.2 z"
           id="path434"
           style="fill:#FFFFFF;stroke:none" /><path
           d="m 311.16,477.2016 0.12,0.66 c 5.16,-8.58 11.28,-16.5 18.12,-23.64 -10.2,-6.78 -19.92,-14.46 -29.16,-22.86 4.56658,15.45124 8.40102,32.10988 10.92,45.84 z"
           id="path442"
           style="fill:#FFFFFF;stroke:none" /><path
           d="m 321.72,596.1216 c -0.96,0 -1.92,-0.12 -2.88,-0.36 -0.6,-0.12 -0.96,-0.72 -0.96,-1.44 0,-0.72 0.6,-1.44 1.44,-1.44 0.12,0 0.24,0.12 0.36,0.12 0.72,0.24 1.32,0.24 2.04,0.24 3.36,0 6.24,-2.52 6.6,-5.94 0.12,0.06 0.12,-0.06 0.12,-0.3 0,-6.48 -4.68,-12 -11.04,-13.14 -0.6,-0.06 -1.2,-0.18 -1.8,-0.18 -7.08,0 -12.72,5.76 -12.72,12.72 0,4.32 2.04,8.28 5.7,10.68 10.38,9 23.58,13.92 37.26,13.92 3.36,0 6.72,-0.24 9.96,-0.84 13.92,-2.76 26.76,-9.84 36.66,-20.04 -12.54,-6.96 -26.7,-10.68 -40.98,-10.68 -7.08,0 -14.16,0.96 -21,2.64 0.48,1.68 0.84,3.24 0.84,4.92 0,0.36 0,0.36 -0.12,0.42 -0.48,4.98 -4.56,8.7 -9.48,8.7 z"
           id="path474"
           style="fill:#FFFFFF;stroke:none" /><path
           d="m 338.46,576.9216 c 28.62,-10.8 53.34,-29.76 71.16,-54.48 -26.58,5.76 -51.78,16.8 -74.04,32.4 -1.86,3.24 -3.54,6.48 -4.92,9.96 -1.38,3.36 -3.78,6.36 -6.78,8.64 2.16,1.32 3.96,3.24 5.22,5.4 2.94,-0.72 6.06,-1.44 9.36,-1.92 z"
           id="path490"
           style="fill:#FFFFFF;stroke:none" /></g><g
         id="g6113"
         style="fill:#FFFFFF;stroke:none"><path
           d="m 484.26,432.9216 c -5.94,-3.6 -11.46,-7.8 -16.44,-12.66 0.9,6.66 1.38,13.62 1.38,20.7 0,6.24 -0.36,12.12 -1.08,17.88 7.2,-7.32 12.72,-16.2 16.14,-25.92 z"
           id="path656"
           style="fill:#FFFFFF;stroke:none" /><path
           d="m 461.4,465.0216 0,-0.06 c -4.58459,-7.11977 -7.85937,-14.91728 -11.52,-22.5 -2.04,11.7 -5.4,23.22 -10.26,34.32 7.86,-2.58 15.18,-6.54 21.78,-11.76 z"
           id="path658"
           style="fill:#FFFFFF;stroke:none" /><path
           d="m 465.6,440.9616 c 0,7.44 -0.6,14.64 -1.5,21.66 l 0.06,0.06 c -5.38499,-8.52345 -9.35643,-17.77137 -13.2,-27.06 0.96,-6.9 1.56,-14.1 1.56,-21.54 0,-5.04 -0.24,-9.84 -0.72,-14.7 3.24,5.94 7.2,11.58 11.82,16.68 1.26,8.1 1.98,16.5 1.98,24.9 z"
           id="path724"
           style="fill:#FFFFFF;stroke:none" /><path
           d="m 402.48,478.5216 c 5.04,1.2 10.08,1.68 15.36,1.68 4.68,0 9.36,-0.36 13.98,-1.44 l -0.66,-2.64 -0.84,-2.52 c -2.15457,-8.30746 -4.45282,-16.66259 -5.52,-25.2 l -0.06,0.12 c -6.06,11.04 -13.5,21.12 -22.26,30 z"
           id="path866"
           style="fill:#FFFFFF;stroke:none" /><path
           d="m 395.88,450.8016 c 0,-4.2 0.12,-8.4 0.54,-12.42 9.54,-10.74 18.18,-22.26 26.04,-34.5 l 0.06,0 c -0.91086,12.91013 -0.046,25.86643 1.38,38.7 -6.42,13.02 -15.06,24.78 -25.44,34.86 -1.74,-8.76 -2.58,-17.64 -2.58,-26.64 z"
           id="path872"
           style="fill:#FFFFFF;stroke:none" /><path
           d="m 372.24,463.5216 0,0 0,0 20.4,-20.76 c -0.24,2.4 -0.24,5.16 -0.24,8.04 0,8.64 0.72,17.16 2.28,25.5 -5.88,-1.98 -11.4,-4.86 -16.5,-8.4 z"
           id="path874"
           style="fill:#FFFFFF;stroke:none" /><path
           d="m 339.24,444.2616 c 3.12,-10.86 7.56,-21.3 13.44,-31.08 12.33544,-4.39555 24.37415,-9.6426 36.24,-15.18 l 0,0 c -4.86297,9.66835 -9.26745,20.28946 -12.48,28.56 -11.4,7.92 -24,13.8 -37.2,17.7 z"
           id="path920"
           style="fill:#FFFFFF;stroke:none" /><path
           d="m 343.8,446.4816 22.32,12.96 c 2.08416,-8.92773 5.11066,-17.57106 7.92,-26.28 l 0.3,-1.14 c -9.54,6.18 -19.86,11.1 -30.66,14.52 z"
           id="path926"
           style="fill:#FFFFFF;stroke:none" /><path
           d="m 321.48,423.4416 c -6.31019,1.8677 -12.69744,3.44436 -19.08,5.04 l -0.66,0.3 c 11.58,3.78 23.1,8.34 34.32,13.92 2.82,-9.66 6.66,-18.9 11.52,-27.6 -8.56561,3.20006 -17.32574,5.79263 -26.1,8.34 z"
           id="path930"
           style="fill:#FFFFFF;stroke:none" /><path
           d="m 456.48,369.8016 c 0,-2.64 -1.2,-5.16 -3.06,-6.96 -0.18,-0.24 -0.54,-0.48 -0.9,-0.48 -0.84,0 -1.44,0.72 -1.44,1.44 0,0.48 0.12,0.84 0.36,1.14 1.32,1.26 2.16,3.06 2.16,4.86 0,2.16 -1.08,4.2 -2.76,5.52 -2.04,1.2 -4.44,1.8 -6.84,1.8 -3.96,0 -7.8,-1.68 -10.32,-4.68 -1.8,-2.28 -2.64,-5.04 -2.64,-7.92 0,-6.96 5.64,-12.72 12.72,-12.72 1.92,0 3.84,0.48 5.64,1.44 16.2,5.52 29.16,18.12 34.92,34.32 2.4,7.2 3.72,14.88 3.72,22.44 0,6.6 -0.96,13.2 -2.76,19.44 -18.48,-11.16 -32.04,-28.92 -37.92,-49.8 1.8,-0.36 3.48,-0.96 5.1,-1.98 2.46,-1.86 4.02,-4.74 4.02,-7.86 z"
           id="path964"
           style="fill:#FFFFFF;stroke:none" /><path
           d="m 426.42,397.6416 0.06,0 c -0.88993,29.28565 0.77591,55.44887 8.88,80.34 9,-19.98 13.68,-41.82 13.68,-63.9 0,-8.4 -0.72,-16.8 -2.1,-24.96 -1.26,-3 -2.22,-6 -3,-9.06 l 0.06,-0.06 c -2.52,0 -5.04,-0.48 -7.32,-1.68 -0.48,3.6 -1.92,7.2 -4.14,10.14 -2.34,2.94 -4.38,6.06 -6.12,9.18 z"
           id="path978"
           style="fill:#FFFFFF;stroke:none" /><path
           d="m 393.72,396.2016 0.36,-0.72 0,0 c 3.77576,-1.85014 7.49956,-3.80188 11.22,-5.76 5.82,-3 11.1,-6.84 15.84,-11.4 3.18,-3 5.58,-6.48 7.32,-10.38 0.54,2.22 1.5,4.38 3,6.36 0.66,0.66 1.26,1.26 1.86,1.74 0,3.72 -1.32,7.32 -3.6,10.32 l -5.04,7.32 0.06,0 c -15.18,25.32 -33.9,48.12 -55.5,67.92 6.37769,-22.97433 14.86115,-46.45991 24.48,-65.4 z"
           id="path986"
           style="fill:#FFFFFF;stroke:none" /><path
           d="m 399.6,330.2016 c -0.72,0 -1.44,0.12 -2.16,0.18 l 0,0.06 -8.82,0.66 c -29.22,0.54 -58.38,5.22 -86.52,14.04 22.38,6.66 45.78,10.5 69.66,11.64 3.37035,-2.52714 7.06347,-4.56898 10.56,-6.9 5.52,-3.48 11.64,-6.24 17.82,-7.98 2.94,-0.9 6.06,-1.38 9.3,-1.38 1.08,0 2.16,0.12 3.36,0.24 -1.68,-1.68 -3.12,-3.6 -4.02,-5.76 -0.3,-0.84 -0.54,-1.68 -0.66,-2.52 -2.64,-1.44 -5.52,-2.28 -8.52,-2.28 z"
           id="path1066"
           style="fill:#FFFFFF;stroke:none" /><path
           d="m 334.08,383.7216 2.03303,-0.06 c 9.54001,-8.79204 20.3868,-16.05603 30.84697,-23.7 l -31.02,-3.6 c -12.54,5.88 -23.94,13.8 -33.9,23.4 10.44,2.76 21.2447,4.2786 32.04,3.96 z"
           id="path1104"
           style="fill:#FFFFFF;stroke:none" /><path
           d="m 371.04,258.6816 c -5.88,0 -11.64,0.72 -17.22,2.16 11.94,5.04 23.1,11.64 33.24,19.62 -1.74,-6.78 -2.58,-13.62 -2.64,-20.52 -4.5,-0.78 -8.94,-1.26 -13.38,-1.26 z"
           id="path1106"
           style="fill:#FFFFFF;stroke:none" /><path
           d="m 345.12,263.7216 c -7.68,3 -14.76,7.44 -21,12.96 11.64,1.32 23.28,4.08 34.68,8.22 -5.04,-6.54 -9.72,-13.62 -13.68,-21.18 z"
           id="path1108"
           style="fill:#FFFFFF;stroke:none" /><path
           d="m 388.74,286.2816 c -12.06,-9.96 -25.74,-18 -40.2,-23.88 4.62,8.76 10.26,17.16 16.74,24.96 11.28,4.68 21.96,10.56 31.86,17.52 -3.54,-5.88 -6.42,-12.12 -8.4,-18.6 z"
           id="path1118"
           style="fill:#FFFFFF;stroke:none" /><path
           d="m 318.42,282.3816 c 7.02,7.62 14.58,14.7 22.62,21.24 0.48,-0.06 -0.48,-0.18 -2.64,-0.18 -11.64,0 -23.16,1.44 -34.38,4.44 2.94,-9.24 7.86,-18 14.4,-25.5 z"
           id="path1140"
           style="fill:#FFFFFF;stroke:none" /><path
           d="m 300.84,328.8816 c 0,-4.44 0.36,-8.76 1.26,-13.08 8.46,7.32 17.82,13.56 27.9,18.48 l -28.2,7.32 -0.72,-7.32 -0.06,-0.06 c -0.18,-1.62 -0.18,-3.3 -0.18,-5.34 z"
           id="path1142"
           style="fill:#FFFFFF;stroke:none" /><path
           d="m 302.94,311.7816 c 11.46,-3.18 23.34,-4.86 35.46,-4.86 2.52,0 5.04,0.12 7.32,0.3 10.32,7.98 21.36,14.94 32.94,20.7 -14.58,0.72 -28.86,2.52 -42.9,5.22 -12,-5.46 -23.04,-12.54 -32.82,-21.36 z"
           id="path1146"
           style="fill:#FFFFFF;stroke:none" /><path
           d="m 302.28,348.9216 0,0 0,0 0.06,25.8 c 8.46,-7.68 17.82,-14.16 27.84,-19.38 z"
           id="path1170"
           style="fill:#FFFFFF;stroke:none" /><path
           d="m 310.56,406.0416 c 6.61518,-6.36706 13.51077,-12.41748 20.4,-18.48 l 0.54,-0.36 c -9.9,-0.12 -19.86,-1.44 -29.7,-3.84 -0.84,12.24 -2.52,24.48 -5.1,36.6 4.54063,-4.71975 9.13124,-9.38827 13.86,-13.92 z"
           id="path1176"
           style="fill:#FFFFFF;stroke:none" /><path
           d="m 420.48,314.2416 c 4.44,0 8.28,3.12 9.24,7.5 0,0.18 0.12,0.3 0.12,0.3 0,0.84 -0.72,1.44 -1.44,1.44 -0.72,0 -1.32,-0.48 -1.44,-1.08 -0.6,-3 -3.36,-5.28 -6.48,-5.28 -0.96,0 -1.92,0.24 -2.82,0.66 -4.26,2.34 -6.9,6.9 -6.9,11.7 0,1.56 0.24,3.12 0.72,4.5 1.92,4.74 6.6,7.86 11.88,7.86 6.72,0 12.36,-5.28 12.66,-11.94 0.78,-3.54 1.14,-7.26 1.14,-10.98 0,-13.32 -4.8,-26.16 -13.44,-36.36 -9.48,-10.68 -21.96,-18.24 -35.76,-21.78 0.36,21.54 9,42.18 24.06,57.72 1.26,-1.26 2.7,-2.34 4.38,-3.36 1.44,-0.54 2.64,-0.9 4.08,-0.9 z"
           id="path1214"
           style="fill:#FFFFFF;stroke:none" /><path
           d="m 409.92,321.3816 c -2.28,-2.34 -4.32,-4.74 -6.24,-7.14 -23.76,-19.32 -52.56,-31.32 -82.92,-34.44 18.36,20.04 40.56,36.36 65.16,47.88 3.72,0 7.44,-0.24 11.04,-0.72 0.84,-0.12 1.68,-0.24 2.64,-0.24 2.76,0 5.64,0.6 8.28,1.74 0.12,-2.34 0.84,-4.86 2.04,-7.08 z"
           id="path1226"
           style="fill:#FFFFFF;stroke:none" /></g><g
         id="g6165"
         style="fill:#FFFFFF;stroke:none"><path
           d="m 256.44,383.7216 c -2.28,0 -2.76,0 -1.56,-0.06 -10.03405,-8.42675 -20.61015,-16.16344 -31.32,-23.7 l 0,0 30.96,-3.6 c 12.48,5.88 23.88,13.8 33.84,23.4 -10.44,2.76 -21.24,3.96 -31.92,3.96 z"
           id="path1350"
           style="fill:#FFFFFF;stroke:none" /><path
           d="m 245.28,263.7216 c 7.68,3 14.76,7.44 20.94,12.96 -11.7,1.32 -23.34,4.08 -34.62,8.22 5.04,-6.54 9.72,-13.62 13.68,-21.18 z"
           id="path1354"
           style="fill:#FFFFFF;stroke:none" /><path
           d="m 203.34,280.4616 c 10.26,-7.98 21.42,-14.58 33.3,-19.62 -5.64,-1.44 -11.4,-2.16 -17.16,-2.16 -4.56,0 -9,0.48 -13.5,1.26 -0.06,6.9 -0.9,13.74 -2.64,20.52 z"
           id="path1358"
           style="fill:#FFFFFF;stroke:none" /><path
           d="m 241.92,262.4016 c -4.8,8.88 -10.44,17.28 -16.92,25.02 -11.28,4.62 -21.96,10.5 -31.8,17.46 3.6,-5.88 6.48,-12.12 8.46,-18.6 12.18,-9.96 25.74,-18 40.26,-23.88 z"
           id="path1362"
           style="fill:#FFFFFF;stroke:none" /><path
           d="m 271.98,282.4416 c -7.02,7.56 -14.58,14.64 -22.56,21.18 -0.54,-0.06 0.42,-0.18 2.7,-0.18 11.52,0 23.04,1.56 34.32,4.44 -3,-9.24 -7.8,-18 -14.46,-25.44 z"
           id="path1374"
           style="fill:#FFFFFF;stroke:none" /><path
           d="m 252.12,306.9216 c 12,0 23.88,1.68 35.34,4.86 -9.78,8.82 -20.82,15.9 -32.76,21.36 -14.1,-2.7 -28.38,-4.5 -42.9,-5.22 11.52,-5.76 22.56,-12.72 32.88,-20.7 2.28,-0.18 4.8,-0.3 7.44,-0.3 z"
           id="path1376"
           style="fill:#FFFFFF;stroke:none" /><path
           d="m 193.5,326.9616 c -0.9,-0.12 -1.74,-0.24 -2.58,-0.24 -2.88,0 -5.76,0.6 -8.4,1.68 -0.12,-2.4 -0.84,-4.92 -2.04,-7.08 2.28,-2.28 4.32,-4.68 6.24,-7.14 23.64,-19.38 52.44,-31.26 82.8,-34.38 -18.24,20.04 -40.44,36.36 -64.98,47.88 -3.78,0 -7.38,-0.24 -11.04,-0.72 z"
           id="path1380"
           style="fill:#FFFFFF;stroke:none" /><path
           d="m 288.72,341.6016 -28.26,-7.32 c 10.02,-4.92 19.38,-11.16 27.9,-18.48 0.84,4.32 1.32,8.64 1.32,13.08 0,2.04 -0.12,3.72 -0.24,5.34 z"
           id="path1396"
           style="fill:#FFFFFF;stroke:none" /><path
           d="m 288.12,374.7216 0.12,-25.8 -27.96,6.48 c 10.08,5.16 19.44,11.64 27.84,19.32 z"
           id="path1418"
           style="fill:#FFFFFF;stroke:none" /><path
           d="m 258.96,387.2016 c 12.80749,11.28261 23.84276,21.32653 34.32,32.28 l 0.48,0.48 -0.06,0 c -2.7,-12.12 -4.38,-24.48 -5.16,-36.66 -9.78,2.46 -19.74,3.78 -29.58,3.9 z"
           id="path1420"
           style="fill:#FFFFFF;stroke:none" /><path
           d="m 170.04,314.2416 c -4.56,0 -8.4,3.12 -9.36,7.44 0,0.12 0,0.24 0,0.24 0,0.84 0.6,1.44 1.44,1.44 0.6,0 1.2,-0.48 1.32,-1.02 0.72,-2.94 3.36,-5.22 6.6,-5.22 0.84,0 1.8,0.24 2.7,0.6 4.38,2.28 7.02,6.84 7.02,11.64 0,1.56 -0.36,3.12 -0.84,4.56 -1.92,4.8 -6.6,7.92 -11.76,7.92 -6.84,0 -12.48,-5.28 -12.78,-11.94 -0.66,-3.54 -1.02,-7.26 -1.02,-10.98 0,-13.32 4.68,-26.16 13.32,-36.36 9.48,-10.68 21.96,-18.24 35.76,-21.78 -0.36,21.66 -9,42.3 -24.12,57.72 -1.2,-1.38 -2.64,-2.46 -4.32,-3.42 -1.32,-0.48 -2.64,-0.84 -3.96,-0.84 z"
           id="path1452"
           style="fill:#FFFFFF;stroke:none" /><path
           d="m 182.28,332.4216 c 2.64,-1.38 5.64,-2.22 8.64,-2.22 0.6,0 1.32,0.12 2.1,0.18 l 8.82,0.66 0,0.06 c 29.28,0.54 58.44,5.22 86.46,14.1 -22.5,6.6 -45.9,10.44 -69.6,11.58 l 0.06,-0.06 -0.72,-0.48 c -8.63851,-6.01586 -18.69823,-11.72512 -27.78,-14.34 -2.94,-0.9 -6.06,-1.38 -9.18,-1.38 -1.2,0 -2.28,0.12 -3.48,0.24 1.8,-1.68 3.12,-3.6 4.02,-5.82 0.3,-0.9 0.54,-1.74 0.66,-2.52 z"
           id="path1478"
           style="fill:#FFFFFF;stroke:none" /><path
           d="m 213.96,426.4416 c -3.78276,-10.08284 -8.53211,-20.48679 -12.36,-28.44 l 0,0 c 12.18599,5.77024 25.26897,11.02066 36.12,15.18 5.88,9.78 10.32,20.22 13.38,31.08 -13.26,-3.9 -25.86,-9.78 -37.14,-17.7 z"
           id="path1612"
           style="fill:#FFFFFF;stroke:none" /><path
           d="m 140.52,442.4616 c 2.04,11.7 5.4,23.22 10.26,34.32 -7.98,-2.58 -15.3,-6.54 -21.84,-11.76 4.56092,-7.34946 8.68281,-15.71206 11.58,-22.56 z"
           id="path1638"
           style="fill:#FFFFFF;stroke:none" /><path
           d="m 106.14,432.9216 c 3.3,9.72 8.82,18.6 16.02,25.92 -0.72,-5.76 -0.96,-11.64 -0.96,-17.88 0,-7.08 0.36,-14.04 1.32,-20.64 -4.92,4.92 -10.44,9 -16.38,12.6 z"
           id="path1700"
           style="fill:#FFFFFF;stroke:none" /><path
           d="m 124.8,440.9616 c 0,7.44 0.48,14.64 1.44,21.66 5.38035,-8.41835 9.85518,-18.58789 12.96,-26.34 l 0.36,-0.72 -0.06,0.06 c -1.02,-6.9 -1.5,-14.1 -1.5,-21.54 0,-5.04 0.12,-9.96 0.6,-14.7 -3.24,5.94 -7.2,11.58 -11.82,16.68 -1.38,7.98 -1.98,16.38 -1.98,24.9 z"
           id="path1704"
           style="fill:#FFFFFF;stroke:none" /><path
           d="m 141.48,414.0816 c 0,-8.4 0.6,-16.8 1.98,-24.96 1.26,-3 2.22,-6 3.06,-9.06 2.52,-0.06 4.92,-0.54 7.2,-1.74 0.48,3.6 1.92,7.2 4.14,10.08 2.34,2.88 4.38,6 6.18,9.18 2.54054,26.19516 -1.69032,55.91343 -8.64,79.62 l -0.24,0.6 -0.06,0.12 c -9.06,-19.92 -13.62,-41.76 -13.62,-63.84 z"
           id="path1710"
           style="fill:#FFFFFF;stroke:none" /><path
           d="m 166.56,442.5816 c 1.3771,-13.35674 2.09875,-27.27462 1.38,-38.76 7.74,12.18 16.38,23.82 25.92,34.5 0.42,4.08 0.66,8.28 0.66,12.48 0,9 -0.96,17.88 -2.64,26.64 -10.32,-10.08 -18.96,-21.84 -25.32,-34.86 z"
           id="path1742"
           style="fill:#FFFFFF;stroke:none" /><path
           d="m 172.56,480.2016 c 5.16,0 10.32,-0.48 15.3,-1.68 -8.7,-8.88 -16.14,-18.96 -22.14,-30.06 -1.39239,10.33414 -4.4846,20.26848 -7.14,30.3 4.62,1.08 9.18,1.44 13.98,1.44 z"
           id="path1846"
           style="fill:#FFFFFF;stroke:none" /><path
           d="m 218.28,463.5216 -20.52,-20.76 -0.06,0 c 0.18,2.4 0.3,5.16 0.3,8.04 0,8.64 -0.84,17.16 -2.4,25.5 5.88,-1.98 11.4,-4.86 16.62,-8.4 z"
           id="path1858"
           style="fill:#FFFFFF;stroke:none" /><path
           d="m 216,432.0216 c 3.06795,8.6533 5.81279,17.43116 8.04,26.34 l 0.36,1.08 0,0 22.32,-12.9 c -10.92,-3.42 -21.24,-8.34 -30.72,-14.52 z"
           id="path1902"
           style="fill:#FFFFFF;stroke:none" /><path
           d="m 288.66,428.7816 c -15.24324,-3.87648 -30.35368,-8.23905 -45.18,-13.5 l -0.6,-0.12 0,-0.06 c 4.8,8.7 8.64,17.94 11.4,27.6 11.16,-5.58 22.68,-10.14 34.38,-13.92 z"
           id="path1938"
           style="fill:#FFFFFF;stroke:none" /><path
           d="m 133.92,369.8016 c 0,-2.64 1.08,-5.16 3,-6.96 0.24,-0.24 0.6,-0.48 1.08,-0.48 0.72,0 1.44,0.72 1.44,1.44 0,0.48 -0.24,0.84 -0.54,1.14 -1.38,1.26 -2.1,3.06 -2.1,4.86 0,2.16 0.96,4.2 2.7,5.52 2.1,1.2 4.5,1.8 7.02,1.8 3.84,0 7.68,-1.68 10.2,-4.68 1.8,-2.28 2.76,-5.04 2.76,-7.92 0,-6.96 -5.76,-12.72 -12.72,-12.72 -2.04,0 -3.96,0.48 -5.76,1.44 -16.2,5.52 -29.16,18.12 -34.98,34.32 -2.46,7.2 -3.66,14.88 -3.66,22.44 0,6.6 0.84,13.2 2.7,19.44 18.54,-11.16 32.1,-28.92 37.98,-49.8 -1.68,-0.36 -3.48,-0.96 -5.16,-1.98 -2.52,-1.86 -3.96,-4.74 -3.96,-7.86 z"
           id="path1942"
           style="fill:#FFFFFF;stroke:none" /><path
           d="m 221.28,461.4816 -0.24,-0.72 c -2.45394,-10.08536 -5.54757,-20.01702 -9.12,-29.76 -4.75287,-12.0034 -8.17481,-21.16464 -13.8,-32.04 l -1.68,-3.48 c -9.78955,-4.61571 -20.14079,-10.46418 -27.18,-17.16 -3.18,-3 -5.58,-6.48 -7.32,-10.38 -0.42,2.22 -1.5,4.38 -3,6.36 -0.66,0.66 -1.26,1.26 -1.86,1.74 0,3.72 1.32,7.32 3.66,10.32 l 0.06,0 4.86,7.32 c 15.18,25.2 33.9,48.12 55.56,67.92 z"
           id="path1970"
           style="fill:#FFFFFF;stroke:none" /></g></g></g></svg>